<?xml version="1.0" encoding="UTF-8" standalone="no"?>
<!-- Created with Inkscape (http://www.inkscape.org/) -->

<svg
   width="594mm"
   height="841mm"
   viewBox="0 0 594 841"
   version="1.1"
   id="svg1371"
   xml:space="preserve"
   inkscape:version="1.2.2 (b0a8486541, 2022-12-01)"
   sodipodi:docname="dalmatin.svg"
   inkscape:export-filename="dalmatin.pdf"
   inkscape:export-xdpi="300"
   inkscape:export-ydpi="300"
   xmlns:inkscape="http://www.inkscape.org/namespaces/inkscape"
   xmlns:sodipodi="http://sodipodi.sourceforge.net/DTD/sodipodi-0.dtd"
   xmlns="http://www.w3.org/2000/svg"
   xmlns:svg="http://www.w3.org/2000/svg"><sodipodi:namedview
     id="namedview1373"
     pagecolor="#ffffff"
     bordercolor="#999999"
     borderopacity="1"
     inkscape:showpageshadow="0"
     inkscape:pageopacity="0"
     inkscape:pagecheckerboard="0"
     inkscape:deskcolor="#d1d1d1"
     inkscape:document-units="mm"
     showgrid="false"
     inkscape:zoom="0.3124515"
     inkscape:cx="972.95099"
     inkscape:cy="1645.0553"
     inkscape:window-width="3440"
     inkscape:window-height="1368"
     inkscape:window-x="2560"
     inkscape:window-y="0"
     inkscape:window-maximized="1"
     inkscape:current-layer="layer1" /><defs
     id="defs1368" /><g
     inkscape:label="Layer 1"
     inkscape:groupmode="layer"
     id="layer1"><path
       style="fill:#000000;stroke-width:0.999999"
       d="m 10.794532,838.31191 c 1.553398,-13.17333 2.219684,-16.36595 5.270345,-25.25328 2.775195,-8.08485 3.877757,-10.34253 7.659621,-15.68422 3.820541,-5.39635 4.950913,-6.48967 8.361366,-8.08743 6.094917,-2.85535 13.815289,-2.48764 18.517172,0.88203 7.666414,5.49422 10.233249,14.18611 8.288052,28.06517 -0.652747,4.65741 -0.921354,9.73712 -0.788223,14.90646 l 0.201935,7.84158 -23.912508,-5.9e-4 -23.912504,-6.5e-4 z m 56.879661,-0.41061 c 0.970545,-9.77748 4.980335,-20.43073 9.958833,-26.45876 13.119921,-15.88576 31.895314,-11.01108 39.300844,10.20368 1.70047,4.87136 2.14462,7.20495 2.4084,12.65384 l 0.32342,6.68092 H 93.5171 67.368498 Z m 77.239287,1.24132 c -0.42325,-4.11503 0.7432,-12.61867 2.43161,-17.72708 2.23215,-6.75346 8.65818,-15.91916 13.6319,-19.44372 3.09095,-2.19038 4.05595,-2.46374 8.69715,-2.46374 4.83188,0 5.4897,0.20672 8.83819,2.77777 4.37984,3.36293 8.4502,9.32438 10.3171,15.11055 1.84566,5.72028 2.86704,14.74537 2.20513,19.48518 l -0.51512,3.68876 -22.70747,0.21485 -22.70746,0.21483 z m 75.51492,1.39508 c 0,-1.53014 2.59573,-7.14478 4.64346,-10.04402 6.7738,-9.59053 17.30087,-10.99934 28.41931,-3.80329 1.75465,1.13566 3.9417,3.06014 4.86011,4.27673 1.91837,2.54127 5.00072,8.28332 5.00072,9.3158 0,0.38395 -9.65782,0.69806 -21.4618,0.69806 -11.80399,0 -21.4618,-0.19957 -21.4618,-0.44328 z m 60.38278,-2.51433 c -1.1053,-4.32767 -4.37901,-8.51576 -9.74766,-12.47025 -5.23757,-3.85795 -8.29396,-8.16873 -9.35854,-13.19947 -2.2128,-10.4569 1.11335,-19.40302 9.15118,-24.61301 2.54138,-1.6473 4.17167,-2.0905 7.85714,-2.13615 4.06532,-0.0502 5.12471,0.2654 8.42069,2.50939 4.94112,3.36415 8.10022,7.35926 11.91624,15.06962 3.86258,7.80445 7.78344,13.01407 11.57572,15.38061 9.8656,6.15645 12.03738,7.79164 14.34081,10.79771 1.40909,1.839 3.27781,5.20565 4.15264,7.4814 l 1.59064,4.13776 h -24.57175 -24.57173 z m 115.48301,-5.46017 c 0.29454,-10.21785 1.86864,-15.65001 6.19529,-21.37997 5.05936,-6.70027 6.82429,-7.57609 15.15543,-7.52073 6.34358,0.0422 7.83113,0.33059 11.89101,2.30587 10.39535,5.05765 17.57838,13.61336 21.98598,26.18742 1.46634,4.18327 2.6661,7.88025 2.6661,8.21559 0,0.33531 -13.08071,0.6096 -29.06823,0.6096 h -29.06823 z m 85.73612,8.02308 c 0,-1.26257 4.98727,-14.93598 7.01883,-19.24336 5.52474,-11.71358 15.72549,-17.49375 23.90709,-13.5468 3.43761,1.65838 7.8162,7.20307 9.83475,12.45396 1.67812,4.36534 2.75358,12.59194 2.30754,17.65122 l -0.27153,3.07968 h -21.39832 c -11.76908,0 -21.39836,-0.17763 -21.39836,-0.3947 z m -121.86808,-9.52686 c -2.69516,-2.26878 -4.03122,-5.54603 -4.09499,-10.0445 -0.0403,-2.82428 0.58861,-5.32455 2.921,-11.61729 4.31297,-11.63631 4.15266,-13.96592 -1.66953,-24.26136 -3.98423,-7.04526 -5.28648,-10.82892 -5.64297,-16.39558 -0.37669,-5.88143 1.35035,-11.93763 4.58369,-16.0734 5.07658,-6.49347 11.20865,-7.38096 18.33895,-2.65429 6.16917,4.08961 13.30897,17.61481 15.50648,29.37457 2.73885,14.65664 -0.90417,32.37835 -8.94756,43.52602 -5.21513,7.22775 -8.34881,9.34971 -14.26663,9.66014 -3.90077,0.20456 -4.97319,-0.037 -6.72844,-1.51431 z m 221.26859,-9.67467 c -3.45682,-3.07338 -5.08939,-7.12185 -5.33295,-13.22477 -0.29121,-7.29683 1.30444,-12.67166 5.25484,-17.70024 3.39952,-4.32746 6.2586,-5.75367 9.95907,-4.96802 l 2.66793,0.56643 v 17.21619 17.21614 l -1.59512,0.92918 c -0.87733,0.51104 -3.29178,1.0759 -5.36545,1.25529 -3.02068,0.26135 -4.13181,0.009 -5.58832,-1.2902 z M 0.00992048,803.18258 v -17.26723 l 1.59513352,1.17493 c 3.8234094,2.81621 5.9454994,8.51429 5.9454994,15.96449 0,5.38316 -0.7921496,9.39926 -2.4555974,12.44966 -1.1118115,2.03881 -3.8331262,4.92986 -4.64999893,4.93997 -0.2392707,0.002 -0.43503659,-7.76479 -0.43503659,-17.26182 z M 460.68849,815.53982 c -2.12903,-1.42604 -4.94499,-4.27798 -6.75689,-6.84332 -7.96593,-11.27833 -8.56319,-23.85142 -1.55864,-32.81105 4.39099,-5.61654 11.09907,-6.17156 17.37269,-1.43732 6.21309,4.68853 9.39451,12.57146 9.37169,23.22097 -0.0152,6.93131 -1.17104,11.17898 -4.12179,15.1426 -4.22511,5.67553 -8.64755,6.5188 -14.30706,2.72812 z m 83.0732,0.4893 c -3.77088,-2.48602 -8.10832,-8.64399 -11.47446,-16.29038 -4.76981,-10.83509 -5.61999,-17.99444 -3.05063,-25.68926 2.57973,-7.72599 6.71506,-11.29048 13.03866,-11.23879 7.35583,0.0601 15.4354,8.58759 19.37288,20.44689 1.59176,4.79434 1.85272,6.49361 1.86487,12.14429 0.0176,8.57683 -1.2444,13.27056 -4.74402,17.63197 -4.3069,5.36751 -9.75861,6.45558 -15.0073,2.99528 z m -332.61407,-0.0887 c -3.69396,-1.70744 -7.82539,-6.46425 -11.41869,-13.14727 -9.62704,-17.90488 -11.56503,-34.24056 -5.26444,-44.3748 2.87133,-4.61839 5.99608,-6.95306 9.30609,-6.95306 6.38338,0 11.79878,5.50372 17.34562,17.62857 7.81752,17.08823 9.5229,31.14152 4.94644,40.76114 -2.77743,5.83813 -9.50847,8.58445 -14.91502,6.08542 z m 113.3995,-5.11113 c -3.07364,-1.05019 -5.15518,-3.31473 -8.03736,-8.74397 -7.42612,-13.98875 -9.31255,-23.16657 -6.74702,-32.82524 2.43085,-9.15169 6.89016,-13.93578 13.04424,-13.99434 7.04682,-0.067 12.57209,6.27122 17.25986,19.79961 3.08176,8.8937 3.65632,13.60545 2.56386,21.0262 -0.52171,3.54412 -4.21974,9.75955 -7.03255,11.82002 -3.61437,2.64762 -8.25535,3.87296 -11.05103,2.91772 z M 127.20907,808.5869 c -14.96673,-9.86584 -20.60328,-26.61863 -13.12032,-38.99593 6.95166,-11.49856 20.41753,-5.1532 26.59019,12.52974 4.40856,12.62925 3.11325,22.70082 -3.46352,26.93048 -3.19718,2.05615 -6.40883,1.90713 -10.00635,-0.46429 z m 287.22157,-21.81661 c -5.42375,-1.0806 -9.40532,-7.5624 -9.95938,-16.21348 -1.21424,-18.9593 18.22604,-28.71485 25.38266,-12.73759 3.92962,8.773 1.02144,21.81506 -6.02934,27.03907 -2.18223,1.61681 -6.4824,2.49206 -9.39394,1.912 z m 87.03131,0.42611 c -0.31903,-0.15046 -1.30442,-0.50046 -2.18979,-0.77725 -2.83893,-0.88761 -6.1562,-6.06021 -8.95808,-13.96818 -1.44889,-4.08938 -3.39436,-9.00249 -4.32321,-10.91806 -5.59452,-11.53741 -6.03947,-20.93845 -1.36266,-28.79141 2.23631,-3.75508 6.60634,-6.7349 9.87699,-6.7349 5.10945,0 8.48484,3.90182 14.99992,17.33943 7.29953,15.05552 8.37415,21.72804 5.08478,31.5723 -2.79134,8.35377 -9.04771,14.20511 -13.12795,12.27807 z M 73.096047,782.39668 c -7.172636,-2.36617 -12.962885,-8.67305 -15.998196,-17.42565 -1.511141,-4.35749 -1.692985,-5.722 -1.690499,-12.68459 0.0024,-6.86649 0.187792,-8.2941 1.545906,-11.90806 2.062451,-5.48815 5.664571,-10.609 9.350892,-13.29347 4.199381,-3.05808 11.924326,-3.60413 16.787922,-1.18674 6.47197,3.21682 11.726194,10.2198 14.840085,19.77914 2.136243,6.55809 2.127473,15.27977 -0.02119,21.08226 -4.354353,11.759 -15.424539,18.73485 -24.814888,15.63711 z m 86.254783,-4.19363 c -3.61179,-1.82406 -6.74191,-5.2257 -8.58261,-9.32708 -5.21216,-11.61349 -4.17457,-24.60527 2.70032,-33.8109 4.15593,-5.56493 7.57511,-7.64045 12.72531,-7.72468 5.0702,-0.0829 8.49564,1.96436 12.11941,7.24337 3.40894,4.96606 4.64524,10.17309 4.2878,18.05889 -0.81966,18.08326 -12.54083,30.96904 -23.25023,25.5604 z m 81.49062,-2.15133 c -4.19437,-2.96748 -11.8033,-13.93098 -14.01941,-20.20015 -1.70761,-4.83072 -2.17798,-12.02327 -1.13419,-17.34375 1.02208,-5.20986 6.04533,-12.34205 10.11183,-14.35714 9.02673,-4.4731 18.38876,1.59808 23.12244,14.99472 2.28264,6.45999 3.55483,15.4388 2.99774,21.15755 -1.44036,14.78642 -11.65327,22.417 -21.07841,15.74877 z M 16.380941,772.02028 C 7.572117,767.53236 2.3340015,757.96382 3.0804488,747.72405 4.416241,729.39963 21.095794,723.03241 31.656905,736.81526 c 4.01736,5.24292 5.729104,10.47752 5.730535,17.52432 0.0014,6.76554 -1.363819,11.1967 -4.620572,14.99746 -3.876417,4.52393 -10.609083,5.62641 -16.385927,2.68324 z m 266.391889,-4.45341 c -2.49002,-1.53611 -5.21773,-6.25692 -6.29458,-10.89393 -0.50783,-2.18669 -1.86092,-9.88884 -3.00687,-17.11581 -2.64602,-16.6869 -2.30946,-22.0624 1.8667,-29.81427 3.07854,-5.71453 10.55504,-8.42131 15.00428,-5.43206 2.79894,1.88047 7.64837,9.49217 9.29831,14.59465 2.77423,8.57951 3.04903,15.80479 1.0331,27.16306 -2.82024,15.8899 -11.02321,25.74136 -17.90094,21.49836 z m 286.21938,-4.00784 c -1.07643,-1.02703 -2.57294,-3.15201 -3.32554,-4.72216 -1.18911,-2.48076 -1.34163,-3.62943 -1.16413,-8.76716 0.22543,-6.52469 0.98228,-8.58665 4.72653,-12.87728 1.71357,-1.96361 2.84814,-2.53162 5.62462,-2.81596 2.95061,-0.30233 3.78022,-0.0629 5.47065,1.5769 5.16757,5.01327 6.13684,14.74246 2.30052,23.09216 -2.82099,6.13984 -9.58205,8.37832 -13.63265,4.5135 z M 451.28398,752.34037 c -4.75415,-2.04746 -8.99994,-7.93114 -11.0507,-15.31363 -1.91963,-6.91051 -1.92207,-18.59951 -0.004,-24.76912 1.45755,-4.69122 4.84692,-9.56395 7.91477,-11.37882 2.36286,-1.39777 7.47399,-1.49863 10.16387,-0.20054 4.95651,2.39188 9.22753,8.88397 10.99004,16.70527 2.29051,10.1645 -0.48516,25.84396 -5.57946,31.51737 -2.97827,3.31688 -8.90876,4.95744 -12.43335,3.43949 z m 78.4984,-10.26978 c -7.61363,-3.37057 -13.52917,-13.98533 -13.52917,-24.27644 0,-8.82454 4.34845,-17.89339 10.97889,-22.89693 13.98383,-10.55252 29.34964,-1.20323 30.61989,18.6306 0.43435,6.78177 -0.93661,12.17805 -4.49399,17.68889 -6.04803,9.36923 -16.28418,14.08178 -23.57562,10.85388 z m -412.90345,-0.73227 c -2.03603,-1.31569 -5.31282,-6.34101 -6.17419,-9.46892 -0.32826,-1.19194 -0.58555,-4.74439 -0.57175,-7.8943 0.0219,-4.99128 0.32242,-6.57394 2.33932,-12.31869 6.92097,-19.71289 18.98411,-27.24612 26.52752,-16.56599 6.74165,9.54496 4.09699,27.54664 -5.82876,39.67553 -5.18754,6.33896 -12.24654,9.18658 -16.29214,6.57237 z m 215.00445,-1.38607 c -3.37909,-2.17093 -11.13085,-10.85238 -15.60856,-17.48054 -4.65022,-6.8835 -6.50568,-12.3762 -6.51327,-19.28105 -0.009,-8.33736 2.14909,-13.74333 6.66489,-16.69417 4.50473,-2.94357 9.16375,-1.57212 18.91279,5.56719 7.27524,5.32774 11.08775,9.82907 13.85997,16.364 1.87531,4.4207 2.02938,5.28924 2.02012,11.38764 -0.0106,7.89716 -1.18363,11.6775 -5.15181,16.62292 -4.2341,5.27675 -9.43488,6.56523 -14.18413,3.51401 z m 75.50553,-4.17363 c -2.60795,-1.06851 -5.85106,-6.71161 -6.30156,-10.96492 -1.10191,-10.40334 5.08992,-20.57559 12.48913,-20.51772 5.97632,0.0465 10.25375,5.14938 10.87676,12.97513 0.96648,12.1402 -8.2384,22.12356 -17.06433,18.50751 z m -209.19243,-7.61581 c -5.70772,-2.26947 -9.49584,-7.69141 -11.22463,-16.0658 -1.95059,-9.44871 1.2372,-22.03335 8.32784,-32.87654 5.03438,-7.69863 9.23077,-10.70108 14.95662,-10.70108 9.53953,0 16.40551,9.95185 16.99778,24.63738 0.38822,9.62601 -1.08264,14.23895 -7.3512,23.05509 -7.82798,11.00929 -14.64094,14.7603 -21.70641,11.95095 z m 173.33458,-1.05706 c -2.71091,-2.02344 -4.33671,-4.44538 -5.97511,-8.901 -2.15704,-5.86609 -2.16944,-15.60788 -0.0305,-23.96076 1.95171,-7.62157 6.00097,-16.18867 10.33962,-21.87584 4.00287,-5.2469 6.46849,-6.64366 10.82503,-6.13214 3.36611,0.39521 5.51904,2.51601 7.76185,7.64601 2.81709,6.44356 2.44189,16.78579 -0.96714,26.65828 -1.17122,3.39186 -3.00424,8.87724 -4.0734,12.18967 -2.47193,7.65847 -4.391,11.20123 -7.43623,13.72796 -2.87858,2.38841 -7.71062,2.68812 -10.44416,0.64782 z M 40.286345,720.74031 c -2.776905,-1.71222 -5.942878,-7.49982 -6.384751,-11.67171 -1.245567,-11.75987 5.648588,-25.73684 13.724967,-27.82557 4.793853,-1.23979 10.071478,3.19607 11.909453,10.00994 3.201237,11.8679 -0.966814,25.3718 -9.082396,29.4258 -3.004365,1.50077 -7.786192,1.52975 -10.167273,0.0615 z M 0.00992048,683.64625 c 0,-21.13027 0.19763224,-31.55175 0.59834587,-31.55175 1.34773735,0 7.76471295,3.481 9.84585265,5.34108 7.605308,6.79737 12.245464,18.41124 11.398975,28.53052 -1.025579,12.26017 -9.527057,24.53727 -19.6679915,28.40274 l -2.17518202,0.82919 z M 582.89052,714.19662 c -5.15721,-2.60926 -8.38232,-6.81746 -10.77486,-14.05927 -1.5229,-4.60952 -1.62791,-5.61893 -1.62791,-15.64355 v -10.71614 l 2.18766,-6.26974 c 3.44552,-9.87465 8.61098,-14.56032 16.80891,-15.2476 l 4.49539,-0.37684 v 31.72345 31.72346 l -4.49539,-0.0361 c -2.47242,-0.0191 -5.43968,-0.51382 -6.5938,-1.09775 z M 160.2063,706.05409 c -6.16895,-4.67162 -9.33233,-11.05437 -9.79631,-19.76597 -0.34142,-6.41052 1.37298,-11.49859 4.80645,-14.26493 2.7087,-2.18234 4.35138,-2.29978 7.94165,-0.56777 8.1776,3.94506 13.04319,17.81994 9.77011,27.8607 -2.58355,7.92548 -7.62667,10.59649 -12.7219,6.73797 z m -75.599662,-0.0806 c -5.750226,-2.90817 -10.775229,-9.26579 -13.700193,-17.3335 -2.18423,-6.0246 -2.495936,-15.70529 -0.696393,-21.62788 1.483101,-4.88113 5.364585,-10.2159 8.498316,-11.68016 3.32046,-1.55153 9.304172,-0.6611 13.065364,1.94427 4.44577,3.07955 9.249898,10.07007 11.715038,17.04654 3.93742,11.14316 3.27126,20.62894 -1.91205,27.22699 -1.56222,1.9886 -3.876091,4.05501 -5.141938,4.59197 -3.005358,1.27483 -9.147489,1.18746 -11.828144,-0.16834 z m 162.213992,-2.88088 c -5.75599,-3.78488 -8.02442,-11.14969 -5.77839,-18.76038 1.2136,-4.11234 2.3799,-5.77757 5.73224,-8.18437 2.40687,-1.72808 3.46965,-1.99986 6.78284,-1.73481 3.3252,0.26601 4.26173,0.69581 6.09585,2.79756 5.34961,6.13024 5.94822,16.92294 1.2808,23.093 -3.32051,4.38958 -9.74769,5.65966 -14.11334,2.789 z m 240.95238,-0.38826 c -2.08928,-1.05726 -4.153,-2.63233 -10.67311,-8.14604 -11.7041,-9.89749 -13.56352,-12.36627 -15.15617,-20.12281 -1.72095,-8.38143 0.30375,-16.63093 5.84001,-23.79472 7.14157,-9.24106 18.32762,-13.11063 26.93521,-9.31767 9.5631,4.214 15.37576,13.75012 16.90372,27.73174 1.60922,14.72518 -3.41458,28.56976 -12.02159,33.12911 -3.55735,1.88444 -8.68658,2.11008 -11.82807,0.52039 z m -64.90765,-16.41747 c -6.52279,-2.68711 -11.6579,-7.65937 -15.61956,-15.12426 -6.54615,-12.3348 -6.46506,-28.80768 0.18809,-38.22749 3.73952,-5.29446 6.3034,-6.6972 12.25333,-6.70391 4.76446,-0.007 5.58467,0.23963 9.1674,2.73665 6.69718,4.66799 14.73398,17.52126 16.94804,27.10504 1.90207,8.23339 -0.16992,19.20043 -4.63914,24.55383 -4.51437,5.40758 -12.73704,7.95106 -18.29825,5.66014 z m -138.97797,-7.12855 c -4.1316,-1.8547 -8.35187,-6.69573 -10.25681,-11.7654 -1.67748,-4.46433 -1.81205,-15.53967 -0.25423,-20.92393 3.28838,-11.36554 10.75933,-20.65025 19.36919,-24.0714 5.10281,-2.02759 13.33146,-2.41257 17.36433,-0.81238 5.5955,2.22023 10.27055,11.6346 10.25665,20.65441 -0.0233,15.06883 -11.63365,32.46869 -24.93971,37.3756 -4.33333,1.59805 -7.21594,1.48391 -11.53942,-0.4569 z m 59.63881,-1.25838 c -5.73444,-4.04586 -9.13792,-12.48196 -9.08565,-22.52038 0.0677,-13.00351 5.55699,-22.24875 12.51705,-21.08168 10.1684,1.70508 18.19953,19.35588 14.70374,32.31587 -3.06029,11.34524 -11.02546,16.30232 -18.13514,11.28619 z m 193.50467,-5.54813 c -4.5384,-1.81461 -9.1131,-7.55783 -10.69871,-13.43153 -1.32265,-4.89961 -0.90311,-14.23002 0.87138,-19.37943 1.91556,-5.5588 6.54965,-12.41826 10.0651,-14.89852 2.18418,-1.54102 3.90685,-2.1126 6.36707,-2.1126 6.53866,0 11.561,5.55707 15.41986,17.06155 3.77166,11.24446 2.68896,21.58324 -2.85579,27.27002 -5.12397,5.25522 -13.6498,7.69727 -19.16891,5.49051 z M 123.8503,667.75146 c -4.49707,-1.55004 -9.22538,-7.74817 -12.48013,-16.3595 -0.96362,-2.54959 -3.19288,-7.17243 -4.95391,-10.27304 -3.73422,-6.57471 -5.00222,-9.86056 -6.36338,-16.48981 -2.276263,-11.08597 1.13018,-23.02036 8.25906,-28.93541 3.02519,-2.51006 9.23367,-3.49846 12.47165,-1.98546 2.92201,1.36536 6.31386,5.79148 8.99556,11.73854 1.2834,2.84613 4.49607,9.94892 7.13927,15.78397 5.48034,12.09824 7.19143,18.3987 6.74833,24.84802 -1.01163,14.72382 -10.34907,24.9359 -19.81645,21.67269 z M 33.698624,661.4213 c -5.941119,-2.9446 -11.150667,-10.05398 -14.344418,-19.57556 -1.627127,-4.85098 -2.114561,-7.45759 -2.366066,-12.65282 -0.290826,-6.00738 -0.192487,-6.84343 1.200942,-10.20981 3.01266,-7.27836 10.263681,-11.63789 16.154605,-9.71267 4.057623,1.32606 8.702131,5.24143 12.358724,10.41852 9.745375,13.7977 9.186825,34.90185 -1.09876,41.51527 -2.931875,1.88515 -8.3405,1.98376 -11.905027,0.21698 z m 142.924806,-2.67199 c -10.87047,-4.15695 -17.67873,-14.16169 -17.66177,-25.9541 0.0136,-8.99382 3.53646,-15.67098 10.20155,-19.33216 4.5362,-2.49172 14.94671,-2.74239 20.20226,-0.48648 8.03838,3.45044 12.77663,8.34498 15.19417,15.69519 3.60779,10.96911 -0.20353,22.4518 -9.6164,28.97206 -4.26519,2.95446 -12.22814,3.43498 -18.31981,1.10549 z m 56.32864,-3.01939 c -7.64735,-3.96706 -11.90562,-16.03721 -10.2931,-29.17601 1.02752,-8.37213 4.7358,-18.02183 9.58357,-24.93854 5.11583,-7.29917 8.48614,-9.74126 13.99801,-10.14285 7.54781,-0.5499 13.84709,4.69388 17.0841,14.22157 1.7943,5.28126 1.96601,14.35581 0.39351,20.79584 -2.53927,10.39912 -10.71468,23.66987 -17.29841,28.07961 -2.94576,1.97303 -4.39482,2.43995 -7.4298,2.39388 -2.07365,-0.0313 -4.79071,-0.58656 -6.03788,-1.2335 z m 143.49129,-16.39436 c -6.08421,-2.65548 -11.82426,-10.8596 -14.57165,-20.82695 -1.89499,-6.8751 -1.87879,-20.14319 0.0319,-26.17869 2.4139,-7.62452 7.05331,-11.27011 11.78706,-9.26212 4.67192,1.98178 14.83606,19.68002 17.90132,31.17063 1.4076,5.27649 1.30958,12.81026 -0.22121,17.00134 -1.46316,4.00601 -4.38863,7.49134 -7.09904,8.45762 -3.18017,1.13375 -4.54641,1.0706 -7.82847,-0.36183 z M 70.485828,634.50003 c -2.575896,-1.63611 -5.917516,-6.95859 -6.935716,-11.04708 -2.466714,-9.90484 0.1454,-19.6989 6.356163,-23.83227 8.176887,-5.4418 16.192287,2.89997 16.094261,16.74962 -0.04058,5.73431 -1.133212,9.81973 -3.758417,14.05295 -3.101023,5.00048 -7.758943,6.61572 -11.756291,4.07678 z m 384.687082,-1.61434 c -4.17758,-2.19388 -6.69087,-5.36574 -8.59827,-10.85133 -1.57963,-4.54299 -1.77456,-5.83755 -1.55928,-10.35548 0.29148,-6.1164 1.5135,-10.04453 4.4257,-14.22617 3.29905,-4.73708 6.55747,-6.53047 11.70752,-6.44375 2.69778,0.0454 5.18156,0.59395 6.53846,1.44387 3.08228,1.93065 6.79614,6.90861 8.04069,10.77756 1.46711,4.56087 1.41639,12.05444 -0.11179,16.52403 -3.3355,9.75529 -13.92237,16.55562 -20.44301,13.13127 z m 122.2592,-4.46281 c -8.30703,-4.37547 -13.21638,-12.61238 -14.77629,-24.79177 -1.44562,-11.28708 1.21397,-28.0015 5.31722,-33.41664 3.17586,-4.19128 8.92341,-5.55713 13.06782,-3.10543 2.82976,1.67403 7.86808,7.87298 10.67128,13.12962 l 2.28784,4.2903 -0.155,20.80262 -0.15522,20.80262 -1.98034,1.637 c -2.87281,2.37474 -10.35724,2.71637 -14.27725,0.65168 z m -72.69476,-1.10622 c -5.78895,-1.43073 -11.00492,-8.32213 -14.07574,-18.59705 -1.61227,-5.39458 -1.89142,-7.32537 -1.92335,-13.30309 -0.0475,-8.92365 1.51844,-13.85125 5.65832,-17.80312 3.91612,-3.73828 7.05819,-4.22753 10.94232,-1.70377 6.61654,4.29922 13.59021,16.03125 14.95956,25.16699 2.54507,16.97987 -4.55902,28.95923 -15.56111,26.24004 z M 0.04388152,604.05161 l -0.0078097,-22.1736 1.99048028,4.51683 c 2.5580525,5.80481 3.4988871,11.11271 3.4208295,19.29928 -0.069448,7.2846 -1.5098685,13.85272 -3.9622358,18.06739 l -1.43355577,2.46375 z m 331.09424848,9.6733 c -0.84134,-0.17596 -2.92952,-1.50072 -4.64039,-2.94361 -3.87069,-3.26438 -7.25923,-10.12294 -9.23325,-18.68856 -2.87757,-12.48633 -1.3868,-21.15531 5.07613,-29.51823 8.64658,-11.18849 20.41397,-7.48316 26.09439,8.21667 1.49045,4.11937 1.6303,5.25465 1.58917,12.90109 -0.0425,7.91651 -0.16224,8.71952 -2.14336,14.39516 -3.98851,11.42595 -10.00704,17.0472 -16.74269,15.63748 z m -49.27837,-9.53171 c -1.67828,-1.25496 -3.15364,-3.27685 -4.29503,-5.88607 -1.47544,-3.37294 -1.73879,-4.80189 -1.74014,-9.44125 -7.6e-4,-4.65313 0.25972,-6.06563 1.75395,-9.49058 5.47747,-12.5553 18.9376,-12.55237 22.96636,0.007 2.19434,6.83964 1.1252,15.22085 -2.61764,20.52004 -4.33743,6.14105 -11.15856,7.96346 -16.0675,4.29284 z m -137.12771,-0.89025 c -4.07768,-2.56598 -6.09052,-8.2706 -6.09052,-17.26153 0,-7.65471 1.53234,-13.861 4.43795,-17.97485 6.00509,-8.5021 14.45072,-6.51421 18.32895,4.31412 3.79245,10.58874 0.62875,25.27156 -6.56474,30.46739 -2.61092,1.88588 -7.48886,2.10532 -10.11164,0.45487 z m 270.01265,0.29674 c -4.52777,-0.74573 -10.68159,-3.91172 -14.12724,-7.26817 -7.02468,-6.84281 -10.0429,-16.45417 -8.26047,-26.30476 3.3982,-18.78023 18.01439,-24.48616 33.50152,-13.07845 7.90443,5.82236 11.79366,13.80427 11.74693,24.10838 -0.0691,15.2225 -9.69211,24.71183 -22.86074,22.543 z m 121.08373,-4.1219 c -1.19714,-0.8948 -2.89377,-3.16121 -3.77033,-5.03651 -1.39339,-2.98114 -1.59371,-4.20824 -1.59371,-9.76358 0,-5.7308 0.17143,-6.70306 1.7479,-9.91493 1.97949,-4.03281 5.90426,-7.25666 8.83452,-7.25666 2.20053,0 5.67096,1.8656 7.31477,3.9323 2.81737,3.54201 3.99431,11.665 2.66901,18.42116 -1.76581,9.0019 -9.4891,13.88831 -15.20216,9.61822 z m -337.6827,-0.3506 c -9.52233,-2.80453 -17.15158,-10.64816 -19.16279,-19.70124 -1.31305,-5.91032 -0.92526,-10.56845 1.4521,-17.44167 6.86026,-19.8341 30.77875,-22.45624 42.28254,-4.63533 5.73267,8.88065 6.28737,20.86908 1.42523,30.80256 -4.56662,9.3298 -15.66965,14.01736 -25.99708,10.97568 z M 41.378436,593.12742 c -1.65286,-0.83289 -4.20899,-2.96559 -5.680283,-4.73937 C 31.93301,583.8488 27.382258,579.93198 24.6717,578.89764 15.707537,575.47685 8.0529155,563.2288 7.151557,550.86398 6.2469961,538.45519 12.822989,526.25926 21.06791,525.05446 c 4.936589,-0.72137 8.34673,1.30633 13.438543,7.99068 4.679098,6.14258 6.701874,7.83798 12.662419,10.6129 13.92911,6.48464 19.477732,29.28091 10.706181,43.98578 -3.546589,5.94561 -10.796871,8.35568 -16.496617,5.4836 z M 88.728681,577.8851 c -7.477419,-2.85524 -11.630907,-10.78635 -11.716869,-22.37349 -0.03596,-4.85099 0.250553,-6.72105 1.698829,-11.08682 5.259621,-15.85491 22.310009,-27.66529 36.458319,-25.25377 12.88768,2.19672 21.73054,19.42027 17.71016,34.49482 -3.25917,12.22043 -10.07824,17.61088 -29.43862,23.27117 -7.771964,2.27222 -10.742759,2.46369 -14.711819,0.94809 z m 374.305459,-6.70207 c -8.58725,-3.32548 -17.82837,-14.42575 -21.97764,-26.39913 -1.50612,-4.34613 -1.65974,-5.58752 -1.65974,-13.4125 0,-8.02785 0.12767,-8.99156 1.84758,-13.96119 2.65848,-7.68099 5.39116,-11.80339 9.91228,-14.95321 3.43285,-2.39169 4.41703,-2.69952 8.53138,-2.6685 4.03796,0.031 5.1696,0.38956 8.58751,2.72541 4.67533,3.19516 10.7436,10.91071 13.76504,17.50164 3.43977,7.50344 4.81813,14.78589 4.51714,23.86609 -0.28922,8.72454 -1.34371,12.40651 -5.29362,18.48349 -5.24933,8.07613 -11.87262,11.27981 -18.22993,8.8179 z m -207.96371,-0.50215 c -6.86222,-1.43926 -14.26319,-12.32213 -18.24552,-26.8294 -1.25398,-4.56821 -1.5149,-6.89021 -1.54076,-13.71195 -0.0266,-6.99943 0.16902,-8.78997 1.32417,-12.12241 1.74004,-5.01998 6.41165,-10.98576 9.54128,-12.18462 13.60624,-5.21201 28.64857,17.23073 27.4967,41.02425 -0.78993,16.31724 -8.32026,25.9751 -18.57587,23.82413 z m 258.8588,-12.10771 c -4.80637,-2.22453 -9.22839,-8.3603 -10.43969,-14.4855 -2.1884,-11.06634 2.9739,-25.04419 12.89092,-34.90463 7.42806,-7.38564 16.40925,-9.74629 23.63615,-6.21263 4.16832,2.03812 8.71213,8.34671 10.06718,13.97713 3.49604,14.52681 -3.06908,27.31255 -19.72914,38.42303 -4.55335,3.03657 -5.64837,3.43375 -10.04112,3.6419 -2.71172,0.12853 -5.58465,-0.0691 -6.3843,-0.4393 z m -155.5271,-4.33741 c -3.6875,-2.59546 -5.80825,-4.81371 -8.83294,-9.239 -6.78322,-9.92432 -8.73614,-16.66611 -7.32837,-25.29905 1.41159,-8.65635 5.85163,-16.09116 12.07722,-20.22315 2.88019,-1.9116 4.02098,-2.18486 9.12242,-2.18486 5.57455,0 6.02498,0.13591 10.25799,3.09802 7.00152,4.89923 10.75455,12.34332 11.78891,23.38323 1.49545,15.96076 -8.51856,33.84665 -18.96457,33.87228 -2.6758,0.007 -4.14752,-0.61098 -8.12066,-3.40747 z m -55.95284,-2.35856 c -2.37822,-1.02953 -6.82477,-6.64316 -7.93159,-10.01332 -0.48602,-1.47988 -1.74117,-5.64714 -2.78926,-9.26061 -1.68393,-5.80576 -2.52566,-7.4348 -7.23652,-14.00507 -5.7707,-8.04847 -6.59052,-9.78358 -8.10274,-17.14853 -0.83431,-4.06322 -0.88791,-5.53773 -0.32968,-9.06941 2.67788,-16.94179 18.97524,-18.83306 33.07077,-3.83781 9.55181,10.16149 15.02418,28.40119 12.57766,41.92202 -1.66084,9.17862 -5.31463,16.67728 -9.65312,19.81097 -2.6091,1.88456 -7.18834,2.64815 -9.60552,1.60176 z m 271.64257,-3.60637 c -5.2575,-2.00173 -10.05252,-9.88692 -11.47151,-18.86427 -1.10144,-6.96819 0.98413,-14.30781 5.21175,-18.34144 8.02396,-7.65585 21.08146,11.0898 18.94673,27.20038 -0.50279,3.7946 -2.89108,7.74201 -5.82621,9.62962 -2.7335,1.75795 -3.16787,1.78174 -6.86076,0.37571 z m -417.17879,-4.12334 c -3.54258,-1.85327 -7.30096,-8.00935 -9.52628,-15.60364 -2.23798,-7.63749 -3.67793,-11.01313 -7.65653,-17.94883 -6.96052,-12.13405 -9.15765,-25.58737 -5.87651,-35.98273 2.97924,-9.43889 9.96409,-13.68844 16.14085,-9.82003 4.93011,3.08766 6.80252,6.6522 10.1503,19.32323 1.79743,6.80305 2.36522,7.98517 7.54203,15.70201 6.40313,9.54483 8.60061,14.98248 9.08005,22.46851 0.54413,8.49624 -2.7396,16.81004 -8.19631,20.75142 -3.0281,2.18718 -8.58678,2.71648 -11.6576,1.11006 z m 248.45921,-11.91872 c -6.33659,-4.89867 -8.53598,-16.03904 -5.06707,-25.66606 2.67648,-7.42788 11.77891,-18.46094 16.81433,-20.38066 3.39234,-1.2933 6.29092,0.12447 9.11125,4.45635 2.65299,4.07501 3.58726,7.85748 3.59195,14.54309 0.006,8.42606 -5.87782,20.84532 -12.17428,25.69732 -4.06211,3.13016 -9.23725,3.69929 -12.27618,1.34996 z M 53.08437,529.61248 c -4.541298,-2.38637 -8.040058,-8.4657 -9.138226,-15.87831 -0.544229,-3.67353 -0.485482,-4.92458 0.382317,-8.14173 2.650218,-9.8251 11.556155,-14.99154 18.635416,-10.81061 8.693321,5.13419 11.672159,21.60443 5.419252,29.96352 -3.46743,4.63533 -11.111777,7.06735 -15.298759,4.86713 z m 143.62281,-3.69014 c -5.15319,-3.63569 -8.11704,-11.35409 -7.36506,-19.1798 0.55716,-5.79819 3.08373,-12.10779 7.24798,-18.10037 15.92533,-22.91749 32.50007,-18.4228 31.25426,8.47545 -0.35257,7.61244 -2.14116,12.66255 -6.62878,18.71644 -4.24179,5.72229 -7.2587,8.44001 -11.74415,10.57935 -4.92028,2.34675 -8.96245,2.19123 -12.76425,-0.49107 z M 1.0250047,511.96339 c -0.94266743,-0.3922 -1.01472319,-2.54186 -1.01001113,-30.13227 l 0.0051456,-29.70992 3.44483673,-3.14223 c 5.2243336,-4.76542 8.9569581,-6.51841 13.0764031,-6.14121 6.465216,0.59195 11.601079,5.94822 14.712839,15.3442 1.3631,4.11596 1.528522,5.59981 1.528522,13.71103 0,9.04102 -0.01471,9.13772 -2.452592,16.10329 -3.013901,8.61146 -8.176056,15.9139 -14.662145,20.74122 -3.870865,2.88088 -4.855391,3.25792 -8.9874514,3.44177 -2.5522137,0.11376 -5.0971776,0.0167 -5.6554745,-0.21603 z M 591.94955,510.14367 c -2.53859,-2.19562 -6.03738,-7.98377 -7.46098,-12.34281 -1.02867,-3.14979 -1.23976,-5.33425 -1.23976,-12.82983 0,-8.95449 0.0218,-9.09491 2.43521,-16.01428 1.33939,-3.83933 3.68859,-9.19798 5.22046,-11.90807 l 2.78521,-4.92748 0.15807,14.98771 c 0.087,8.24327 0.087,21.63697 0,29.76378 l -0.15807,14.77603 z M 93.094854,501.91244 c -2.889578,-1.85848 -5.726132,-5.79975 -7.384909,-10.26104 -1.035724,-2.7856 -1.266095,-4.80718 -1.282706,-11.25631 -0.01973,-7.6415 0.04977,-8.06096 2.48744,-15.02881 2.908528,-8.31367 9.652218,-20.24226 14.179911,-25.08217 10.93859,-11.69287 21.63081,-10.69313 24.70577,2.30999 1.55425,6.57247 0.49448,12.84762 -4.14417,24.53845 -1.74222,4.39095 -4.27413,11.58836 -5.62646,15.99421 -2.92504,9.52977 -6.29682,15.09541 -11.031,18.20845 -3.88514,2.5547 -8.482621,2.77764 -11.903876,0.57723 z M 494.21135,498.9142 c -8.92435,-3.48595 -14.45542,-15.17957 -13.7621,-29.09538 0.41822,-8.39433 2.18966,-14.65777 5.6707,-20.05039 3.7253,-5.77097 7.24913,-7.95294 12.99693,-8.04768 6.22366,-0.10274 9.6318,1.82805 13.99682,7.92893 4.74953,6.63829 6.25498,11.97119 6.26168,22.18141 0.004,6.37129 -0.22226,8.10084 -1.64094,12.53372 -3.84396,12.01079 -13.97693,18.27821 -23.52309,14.54939 z m -166.95007,-9.48244 c -5.80054,-4.10382 -9.87543,-12.37919 -11.25047,-22.84748 -1.70567,-12.9857 3.56061,-26.7042 12.69546,-33.07127 3.42544,-2.38754 4.3618,-2.6707 8.82713,-2.6693 4.03035,9.7e-4 5.52417,0.36638 7.73347,1.89026 3.27906,2.26176 6.54094,7.15827 8.10637,12.1687 1.49366,4.78079 1.99277,14.3366 1.04654,20.03708 -3.58662,21.60709 -15.74206,32.56909 -27.1585,24.49201 z m 220.48045,-2.77782 c -8.18921,-3.62352 -14.06159,-13.41499 -14.06159,-23.44595 0,-5.69179 1.42603,-10.20943 4.43516,-14.05038 3.50201,-4.47006 6.70191,-5.89098 12.4602,-5.533 3.9274,0.24428 5.54955,0.78094 8.67288,2.86949 7.17399,4.79738 11.51806,12.64971 11.51806,20.82013 0,8.10627 -4.83379,16.87045 -10.65449,19.31778 -3.50844,1.47515 -9.06372,1.485 -12.37022,0.0215 z M 379.99077,481.5668 c -6.46142,-4.55872 -9.62335,-11.67714 -9.61404,-21.64377 0.009,-8.35041 1.78023,-12.84099 8.52479,-21.59795 6.29821,-8.17754 7.25031,-10.21478 10.24116,-21.91467 3.51271,-13.74137 7.16738,-20.57404 13.42099,-25.09153 2.98739,-2.15807 9.7026,-2.59633 12.22044,-0.79757 4.93137,3.52303 7.66691,9.2844 8.78279,18.49747 0.61405,5.06978 0.57505,6.56202 -0.2941,11.2538 -1.40208,7.56858 -3.79999,14.04195 -8.90749,24.04679 -2.42117,4.74268 -5.83211,12.87301 -7.57992,18.0674 -3.97986,11.82804 -6.11379,15.58342 -10.69784,18.82662 -3.10908,2.19965 -4.1799,2.52577 -8.2939,2.52577 -3.94522,0 -5.23134,-0.35812 -7.80288,-2.17236 z m -131.46228,-1.37515 c -3.52405,-2.37667 -6.99959,-7.86211 -7.87128,-12.42318 -1.54153,-8.06575 1.00253,-18.76138 6.29719,-26.47449 8.11273,-11.81844 20.57288,-8.77609 25.24027,6.16282 1.60262,5.12952 1.25973,14.60242 -0.73008,20.16862 -4.04052,11.30285 -15.50002,17.58127 -22.9361,12.56623 z m 193.99026,-1.64321 c -15.04783,-7.96682 -16.63642,-33.52651 -2.94639,-47.40613 9.60779,-9.74081 22.11179,-6.44539 27.83392,7.33564 1.37734,3.31722 1.57295,4.65636 1.57295,10.7689 0,6.05601 -0.22556,7.63321 -1.703,11.90804 -2.07145,5.99353 -7.14581,13.36255 -11.01671,15.99856 -3.50141,2.38438 -10.52513,3.09744 -13.74077,1.39499 z m -266.05369,-1.85877 c -10.18008,-7.18236 -11.79857,-24.21711 -3.37284,-35.49933 4.87132,-6.52281 9.09325,-6.73594 13.33694,-0.67316 7.87149,11.24559 7.45402,30.54665 -0.78832,36.44671 -3.34649,2.39548 -5.48231,2.33162 -9.17578,-0.27409 z M 54.244466,473.1452 c -5.192996,-3.41136 -8.581307,-11.55047 -8.581307,-20.61339 0,-20.21357 17.178148,-31.07797 26.347798,-16.6638 2.803671,4.40717 3.608872,8.17613 3.277018,15.33903 -0.339118,7.31991 -2.16803,12.67195 -6.117764,17.90275 -4.273814,5.65994 -10.068049,7.2265 -14.925745,4.03541 z M 289.55696,454.18532 c -8.07293,-8.27975 -5.12219,-27.11211 4.24806,-27.11211 4.95633,0 10.71558,7.36658 11.60835,14.84807 0.55339,4.6378 -1.52517,10.38644 -4.64826,12.85546 -3.56252,2.81646 -8.11985,2.57598 -11.20815,-0.59142 z m -79.33536,-6.43886 c -3.79673,-1.85821 -7.19761,-5.69613 -9.40652,-10.61544 -4.59785,-10.23945 -3.78863,-20.96088 2.63237,-34.87727 4.87361,-10.56264 10.53658,-15.14181 17.71133,-14.32158 13.90117,1.58914 20.2992,23.39736 12.91612,44.02559 -2.85278,7.97068 -7.47447,13.62992 -13.04299,15.97128 -4.00676,1.68463 -7.10182,1.63235 -10.81031,-0.1824 z m -64.10346,-12.79804 c -7.34889,-4.00002 -13.10615,-13.89373 -14.14051,-24.30013 -1.10191,-11.08596 6.48629,-25.65467 15.23873,-29.25708 4.15006,-1.70815 8.07181,-0.97369 12.45242,2.33203 6.83636,5.1589 10.43103,13.6771 10.78061,25.54645 0.19934,6.76914 0.0939,7.58787 -1.60629,12.4777 -1.9122,5.49935 -4.22057,8.64987 -8.73976,11.9283 -3.2439,2.35327 -10.74575,3.03599 -13.9852,1.27273 z m 429.88008,-0.38158 c -6.73783,-3.14077 -16.81954,-15.47485 -20.06783,-24.55119 -1.57774,-4.40855 -1.6817,-5.30134 -1.64722,-14.14978 0.0419,-10.78562 0.72532,-13.85716 3.98379,-17.90781 3.65229,-4.54022 9.39041,-4.59885 15.83215,-0.16166 4.73983,3.26476 12.9314,14.50237 17.14335,23.51807 l 2.73725,5.85919 v 9.42844 c 0,11.09269 -0.43138,12.327 -5.54683,15.87045 -3.40048,2.35549 -9.62532,3.40396 -12.43466,2.09439 z M 0.05687338,419.47668 0.1038255,409.41645 1.201759,412.70143 c 1.3162459,3.93815 1.442547,10.07491 0.2878789,13.98752 -0.4622612,1.56639 -0.9843049,2.84801 -1.1600969,2.84801 -0.17579279,0 -0.2984934,-4.52715 -0.27266762,-10.06028 z M 519.93958,428.34895 c -4.64335,-2.86051 -9.08871,-11.65168 -9.8405,-19.46069 -0.88179,-9.15918 2.58864,-22.62708 7.69279,-29.85364 2.97672,-4.21449 7.8008,-7.80612 10.48483,-7.80612 2.38432,0 5.77807,1.94242 7.60168,4.35075 4.20203,5.54948 5.87122,19.55537 3.89989,32.72354 -1.06287,7.09963 -2.57788,11.18366 -5.5671,15.00723 -4.51835,5.77945 -9.95414,7.69869 -14.27159,5.03893 z m -491.066973,-4.0368 c -5.085063,-2.68677 -7.691094,-7.26403 -8.578744,-15.0678 -1.447796,-12.72817 4.512335,-29.09959 12.364811,-33.96385 5.787553,-3.58517 12.876519,-2.09143 16.442518,3.46461 2.702681,4.21091 3.398607,7.30689 3.400925,15.12957 0.0021,7.1259 -0.106681,7.76426 -2.477908,14.5394 -2.635039,7.52898 -5.036191,11.03936 -9.94894,14.545 -3.195892,2.2805 -8.284277,2.89508 -11.202662,1.35307 z M 482.82394,422.8946 c -2.45823,-1.00884 -5.80206,-6.44067 -6.62543,-10.7626 -1.83329,-9.62299 2.49943,-21.90478 9.10627,-25.81319 2.50066,-1.4793 7.37746,-1.44147 9.44634,0.0733 4.22507,3.09342 6.31618,9.96872 5.35504,17.60694 -0.84542,6.7186 -1.52185,8.71022 -4.47805,13.18486 -3.77045,5.70703 -8.1038,7.6397 -12.80417,5.71075 z m -122.31378,-1.95523 c -0.31903,-0.16069 -1.27775,-0.50945 -2.13049,-0.77469 -6.29262,-1.95711 -9.48697,-15.69773 -5.97139,-25.68613 2.72322,-7.73714 10.09891,-15.8023 14.48239,-15.83622 9.44022,-0.0731 15.2847,13.97255 11.10368,26.68451 -1.54115,4.68571 -6.11423,10.93159 -9.8098,13.39818 -2.4043,1.60472 -6.52523,2.79377 -7.67439,2.21435 z M 85.857119,419.37876 c -12.167607,-3.76382 -18.954869,-18.62243 -15.99813,-35.02294 2.608717,-14.47008 12.817566,-27.66711 24.131359,-31.19478 5.186175,-1.617 12.998012,-0.79432 16.898982,1.77975 7.9326,5.23426 11.72432,16.4911 10.05066,29.8383 -1.80038,14.35772 -13.5019,30.18929 -25.488923,34.48521 -4.018208,1.44001 -5.260723,1.45486 -9.593948,0.11443 z m 227.585171,-2.52724 c -2.99274,-1.84369 -6.36066,-6.75555 -7.77747,-11.34287 -2.82915,-9.16014 -1.84951,-28.1755 2.04005,-39.59853 4.43575,-13.02716 9.80862,-21.39142 16.89336,-26.29899 3.95145,-2.73714 11.33317,-3.78117 14.91181,-2.10898 5.95458,2.78236 9.68382,10.24588 9.67076,19.35455 -0.009,6.07719 -1.29288,10.32031 -5.46796,18.06743 -3.55699,6.6002 -5.95478,12.9821 -8.1768,21.763 -2.05946,8.1386 -2.81762,10.1362 -5.36625,14.13908 -4.07142,6.39457 -11.67957,9.13505 -16.7275,6.02531 z m -47.60417,-3.23922 c -5.89784,-2.72835 -11.85297,-9.815 -14.95324,-17.79455 -2.35817,-6.06947 -2.47856,-14.11231 -0.29371,-19.62341 2.84083,-7.16583 9.7505,-12.35705 16.44761,-12.35705 11.31769,0 22.34074,11.27719 23.85191,24.40179 1.42346,12.36305 -7.81486,25.51508 -18.42041,26.22399 -2.52375,0.16859 -5.15916,-0.16951 -6.63216,-0.85077 z m 182.49667,-10.76156 c -4.13428,-1.87799 -7.61532,-6.83832 -11.34647,-16.16818 -2.17761,-5.44529 -4.83414,-10.54447 -7.82,-15.01047 -5.76758,-8.62665 -7.46305,-13.24956 -7.46305,-20.34886 0,-6.76086 1.64958,-11.41182 5.52247,-15.57071 5.10827,-5.48547 11.17411,-6.10831 18.52061,-1.90172 8.5392,4.88949 14.58289,11.5583 19.16385,21.14596 3.87948,8.11948 5.33195,19.15184 3.7969,28.83958 -2.28962,14.4498 -11.49999,23.04543 -20.37431,19.0144 z m -262.12926,-11.8426 c -9.47396,-2.78767 -14.5276,-19.52278 -9.42449,-31.2091 1.96554,-4.50115 6.09732,-8.3215 9.60535,-8.88132 3.38337,-0.53991 8.27322,1.55734 10.94821,4.69566 6.39753,7.50572 7.02323,22.80157 1.2501,30.55928 -2.95143,3.966 -8.2716,6.04416 -12.37917,4.83548 z M 2.620139,377.36417 C 1.3440326,376.71325 0.23468965,376.17518 0.15493244,376.16838 0.07517694,376.16137 0.00991968,364.14527 0.00991968,349.4655 V 322.775 H 3.1784279 c 6.8244301,0 13.3262211,6.24861 16.9026411,16.24442 1.564436,4.37249 1.680675,5.35055 1.680675,14.14169 0,8.92151 -0.0947,9.68636 -1.71054,13.81627 -3.667456,9.37358 -10.9314451,13.70204 -17.431065,10.38679 z m 589.329411,-3.31883 c -2.6771,-1.95156 -6.61762,-7.73859 -8.14639,-11.96394 -2.7797,-7.68253 -2.92861,-18.34509 -0.36802,-26.35523 1.42976,-4.47268 5.10457,-9.47027 8.00136,-10.88135 l 2.25319,-1.09761 0.15959,13.11617 c 0.0878,7.21388 0.0878,18.81641 0,25.78332 l -0.15959,12.66716 z m -205.45659,-4.07661 c -20.56357,-7.8431 -30.53292,-37.05008 -20.87425,-61.15488 5.1183,-12.77358 11.32288,-16.59725 18.50921,-11.40657 3.00549,2.17085 5.15518,6.65428 7.73953,16.14183 2.11969,7.78166 2.33605,8.21224 8.14227,16.20649 6.84741,9.42778 8.32227,13.04822 8.3417,20.47719 0.0152,6.15619 -1.51941,10.84034 -4.95868,15.12652 -4.25481,5.30256 -10.56781,7.02448 -16.89978,4.60942 z m 105.64711,-5.62288 c -7.69092,-5.07041 -10.1312,-18.44479 -5.26043,-28.83105 3.51479,-7.49492 11.78434,-13.64821 16.61248,-12.36115 4.24672,1.13205 6.65601,2.63195 9.07983,5.65263 9.19176,11.45532 4.73447,30.0839 -8.60465,35.96183 -4.6987,2.07049 -8.23782,1.94413 -11.82723,-0.42226 z m -268.52141,-0.77449 c -3.10785,-2.13959 -4.81928,-4.43146 -9.67427,-12.9555 -1.69775,-2.98079 -5.5083,-9.24873 -8.46791,-13.92884 -6.11288,-9.66635 -8.14497,-14.94235 -8.63877,-22.42912 -0.67479,-10.23101 3.24008,-19.30614 10.5161,-24.37759 9.10907,-6.34912 17.97676,-3.08714 26.52722,9.75799 9.25706,13.90661 13.42946,28.42201 11.97268,41.65209 -1.48342,13.47209 -7.8659,22.98396 -16.04097,23.90608 -2.66197,0.30016 -3.8502,-0.0119 -6.19408,-1.62511 z M 49.910659,356.40351 c -4.120228,-3.21517 -5.357653,-4.92145 -8.604966,-11.86549 -1.478589,-3.16178 -4.300171,-8.64654 -6.270187,-12.18833 -2.098017,-3.77194 -3.878119,-7.93786 -4.297038,-10.05621 -1.773516,-8.96837 2.018077,-18.73362 9.455947,-24.35383 2.050003,-1.54903 3.354134,-1.85092 8.003275,-1.85284 5.354412,-0.002 5.729958,0.12113 10.440872,3.42908 5.487488,3.8532 7.080627,5.90426 10.092505,12.99357 6.363351,14.97787 5.693061,30.88228 -1.708645,40.54194 -3.48043,4.54213 -5.805265,5.86185 -10.294117,5.84353 -2.952399,-0.012 -4.246231,-0.48487 -6.817646,-2.49142 z m 88.995961,-2.30654 c -3.93308,-2.63438 -6.20016,-5.9738 -8.16696,-12.03 -2.64864,-8.15578 -2.39743,-17.03065 0.75122,-26.53734 2.17514,-6.56746 9.1514,-16.2307 14.23813,-19.72213 10.86511,-7.45764 22.88549,-6.24585 29.64975,2.98902 3.64445,4.97549 4.70237,8.60093 4.72052,16.17664 0.0184,7.67048 -0.82778,10.68304 -4.72391,16.81838 -2.9633,4.6664 -18.06043,20.63339 -21.75189,23.00521 -3.99822,2.56887 -10.28299,2.27005 -14.71686,-0.69978 z m 408.06048,-2.00352 c -8.14117,-3.26564 -13.65659,-13.78826 -14.32529,-27.33052 -0.66849,-13.53746 4.55578,-26.29625 13.00275,-31.75528 4.05597,-2.6213 12.40623,-2.53356 17.30256,0.18191 4.78001,2.65089 10.13957,10.20348 11.56861,16.30239 2.46803,10.53297 0.0153,22.38107 -6.75313,32.62565 -5.94418,8.99664 -13.81914,12.77441 -20.7955,9.97594 z m -265.70891,-2.96333 c -6.8627,-3.10801 -14.40338,-11.55082 -17.46179,-19.55087 -2.15033,-5.62468 -3.05239,-12.93016 -2.25035,-18.22499 1.36167,-8.98946 4.971,-16.27209 10.0317,-20.2412 2.74086,-2.14965 3.63885,-2.41972 8.04569,-2.41972 4.56672,0 5.31136,0.24552 9.38033,3.09271 10.53103,7.36896 16.21345,24.35355 13.72007,41.0088 -1.2123,8.09781 -4.41073,14.05644 -9.00348,16.7734 -2.62011,1.54995 -8.53114,1.34214 -12.46217,-0.43813 z M 97.060344,327.86969 c -6.582738,-3.32984 -10.643096,-9.55447 -12.669263,-19.42244 -2.679497,-13.0498 2.447359,-27.87718 11.716533,-33.88531 2.841358,-1.84171 3.769896,-2.03551 8.222276,-1.71601 7.35432,0.52774 11.04199,3.71412 14.01761,12.11219 3.43406,9.69179 1.39852,27.15988 -4.2779,36.71108 -3.7396,6.29227 -11.34614,9.06515 -17.009256,6.20049 z m 365.426436,-2.64846 c -3.36993,-2.42511 -6.90549,-8.12622 -9.03487,-14.56879 -3.3789,-10.22292 -2.60826,-19.30996 2.16595,-25.54061 6.59241,-8.60347 16.89999,-3.36239 21.57998,10.97272 1.35313,4.14468 1.61091,6.03642 1.62264,11.90805 0.0152,8.15498 -1.21306,12.3899 -4.68508,16.13937 -2.90087,3.13265 -8.12961,3.62159 -11.64862,1.08926 z m -138.68223,-10.3119 c -3.24449,-2.28909 -5.26019,-5.21147 -7.25386,-10.51667 -1.02189,-2.71926 -1.26948,-4.74635 -1.26569,-10.36123 0.006,-9.03068 1.49127,-14.0151 5.86023,-19.66843 4.54877,-5.88606 8.30696,-7.73126 15.87294,-7.79331 5.51842,-0.0454 6.36293,0.15522 8.99074,2.13513 5.83197,4.39386 8.95591,11.37477 8.978,20.06262 0.038,14.91599 -11.45486,28.25886 -24.34067,28.25886 -2.96543,0 -4.52523,-0.48264 -6.84169,-2.11697 z m 89.84942,-2.06173 c -4.19637,-1.82175 -7.66556,-6.00824 -9.80766,-11.83557 -1.22634,-3.33619 -1.51268,-5.26135 -1.52672,-10.26558 -0.0154,-5.21092 0.25827,-6.98133 1.77221,-11.49746 3.69309,-11.01632 10.14567,-20.54437 15.83921,-23.38847 5.45299,-2.72395 11.24322,-0.92775 15.23689,4.72664 4.17919,5.91696 6.33958,16.35984 5.11388,24.71916 -1.54379,10.52869 -7.72266,22.46183 -13.4307,25.93839 -3.42693,2.08727 -10.18935,2.90859 -13.19711,1.60289 z m 89.83815,-13.07139 c -6.52498,-4.51597 -14.01795,-11.63359 -16.23501,-15.42181 -2.23619,-3.82093 -3.738,-10.75258 -3.20357,-14.78609 1.24847,-9.42211 7.01614,-16.59918 13.33959,-16.59918 3.82499,0 13.20156,3.03639 18.57005,6.01349 3.57782,1.98406 5.39169,3.61175 7.92144,7.10832 4.52234,6.2507 5.4982,11.62243 3.68331,20.27515 -2.00997,9.58266 -7.75809,15.87977 -15.04607,16.48308 -3.86071,0.3196 -4.38629,0.14068 -9.02974,-3.07296 z M 4.9403329,294.0987 C 3.9832535,293.72415 2.482378,293.01065 1.605054,292.51305 l -1.59513352,-0.90471 v -28.69396 -28.694 l 2.88586662,-2.99931 c 4.4747536,-4.65065 8.6695249,-6.41694 14.2255679,-5.98997 5.621364,0.43197 9.326931,2.81365 12.888162,8.28361 3.20835,4.92801 4.655845,9.17265 5.497336,16.12036 1.347149,11.12261 -1.840397,23.56725 -8.656892,33.79778 -5.035732,7.55786 -9.635149,10.7901 -15.819115,11.1169 -2.3927019,0.12637 -5.1334328,-0.0768 -6.0905131,-0.45105 z M 590.9647,289.09766 c -5.1492,-4.82895 -7.66373,-12.121 -7.64394,-22.16734 0.0221,-11.11446 3.16855,-22.92697 8.31334,-31.20735 l 2.29614,-3.69557 0.0249,29.77012 c 0.0136,16.37359 -0.061,29.77018 -0.16595,29.77018 -0.10471,0 -1.3758,-1.11152 -2.82443,-2.47004 z m -346.75431,-7.04522 c -1.43563,-1.15734 -3.23603,-2.9083 -4.00092,-3.89105 -2.51461,-3.23072 -12.07608,-21.96566 -13.8725,-27.18206 -4.39904,-12.77381 -3.35189,-24.95654 2.82416,-32.85634 7.8442,-10.03363 18.69825,-8.66867 27.11762,3.4102 6.00662,8.61742 8.94595,19.77139 8.93336,33.89967 -0.0106,12.54123 -2.84603,20.53444 -9.36928,26.4178 -3.48951,3.14721 -7.88424,3.22344 -11.63244,0.20173 z M 58.884856,279.65371 c -6.064558,-4.56867 -8.99582,-10.57985 -9.439405,-19.35748 -0.36359,-7.19471 0.724028,-11.50575 4.076917,-16.15991 5.863297,-8.13886 15.270357,-7.77466 21.12454,0.81783 3.793529,5.56798 4.528885,8.20992 4.534639,16.29185 0.0046,6.41342 -0.152234,7.40507 -1.748859,11.06142 -0.964625,2.20905 -2.878131,5.13515 -4.252226,6.50245 -2.159225,2.14862 -3.102215,2.52291 -6.94686,2.75742 -3.914463,0.23869 -4.796669,0.009 -7.348746,-1.91358 z m 232.139484,-5.76992 c -5.51301,-2.86471 -8.25313,-8.34875 -7.82487,-15.66062 0.47163,-8.0523 5.49565,-14.15818 12.22328,-14.85543 2.97464,-0.30824 4.05114,-0.0409 6.17881,1.53436 4.96944,3.67937 7.37312,10.80515 6.2621,18.56407 -1.24773,8.71349 -9.86244,14.04296 -16.83932,10.41762 z m -146.61019,-1.41284 c -3.1527,-3.00807 -4.2324,-6.50728 -4.50579,-14.60283 -0.25988,-7.69589 0.70221,-14.18243 2.94789,-19.87543 3.93464,-9.9745 14.36848,-10.61575 18.90683,-1.16192 4.67586,9.74025 3.75317,20.77827 -2.47014,29.54937 -5.42918,7.65189 -10.89679,9.8901 -14.87879,6.09081 z m 43.38532,0.67884 c -4.96707,-2.50965 -8.93786,-9.32527 -10.56579,-18.13567 -1.37124,-7.42109 -0.25378,-15.55756 2.95975,-21.55042 3.75628,-7.00502 10.11256,-7.17564 18.77316,-0.50387 12.45899,9.5979 15.48776,26.46032 6.49663,36.16969 -4.44892,4.8043 -12.48985,6.63444 -17.66375,4.02027 z m 186.44189,-0.64969 c -1.06155,-0.50403 -3.17952,-2.50686 -4.70662,-4.45078 -7.15846,-9.11236 -7.35854,-25.03146 -0.43517,-34.62661 3.14016,-4.35201 7.00753,-6.72235 11.87569,-7.27873 12.04665,-1.37685 20.4403,13.61041 16.58782,29.61829 -1.23497,5.13158 -5.87523,11.80584 -10.35968,14.90082 -3.86764,2.66925 -9.52147,3.47054 -12.96204,1.83701 z m 177.25793,-0.63878 c -4.18162,-1.78269 -7.7697,-6.98169 -9.46645,-13.71667 -1.12676,-4.47246 -1.00641,-11.932 0.31872,-19.75787 2.58115,-15.24343 7.44737,-22.3737 15.26946,-22.3737 3.60737,0 6.06971,2.0837 10.07459,8.52541 3.99264,6.42194 4.99258,10.3597 4.7122,18.55625 -0.20519,5.99732 -0.51774,7.73778 -2.18206,12.14986 -2.44825,6.49019 -8.68024,15.0193 -12.00464,16.42943 -2.66251,1.12943 -4.39836,1.17779 -6.72182,0.18719 z m -95.94251,-18.13749 c -8.45514,-4.60381 -13.16248,-21.43491 -9.28377,-33.19388 2.73221,-8.28316 5.90557,-11.82185 14.00549,-15.61794 6.28827,-2.94708 8.79097,-5.14664 14.46382,-12.71208 2.66099,-3.54872 6.16374,-7.40328 7.78396,-8.56567 9.38257,-6.73157 20.96584,3.45214 20.96584,18.43259 0,10.90359 -3.41303,17.34399 -14.00584,26.42923 -5.94307,5.09726 -7.80924,7.24653 -12.46166,14.3523 -6.58515,10.05759 -9.62899,12.60686 -14.97483,12.54172 -2.03609,-0.0248 -4.76416,-0.72487 -6.49301,-1.66627 z m -348.65868,-1.972 c -8.143715,-3.23076 -15.114857,-10.82984 -17.849494,-19.45727 -1.388945,-4.38196 -1.558778,-5.77957 -1.326085,-10.91313 0.332937,-7.34503 2.030004,-12.50802 5.965252,-18.1481 1.595133,-2.28614 4.466374,-5.23949 6.380537,-6.56295 3.06785,-2.12108 4.09894,-2.40516 8.70072,-2.39695 4.33848,0.007 5.71042,0.34662 8.12068,2.00586 3.86199,2.65866 9.56932,10.83923 11.47583,16.44881 4.94381,14.54635 2.09921,31.82644 -6.25539,37.99964 -3.01158,2.22523 -10.85365,2.75317 -15.21205,1.02409 z m 223.02558,-7.11746 c -7.30212,-1.39694 -13.62038,-8.04877 -16.86985,-17.76049 -1.72867,-5.16658 -1.84784,-6.10519 -1.84784,-14.55637 0,-8.52751 0.10846,-9.36175 1.93841,-14.88759 2.28337,-6.89548 6.08146,-12.55068 10.24262,-15.25076 2.30528,-1.4958 3.87228,-1.87048 7.63855,-1.8263 4.1249,0.0485 5.23213,0.39976 8.55299,2.71441 9.91848,6.91323 15.59323,22.25368 13.77755,37.24467 -2.00575,16.56049 -11.65441,26.57558 -23.43243,24.32243 z m 186.59555,-0.55451 c -2.977,-1.97245 -5.32719,-5.90906 -5.8405,-9.78295 -0.5374,-4.0559 1.55142,-9.61601 4.82909,-12.85415 8.31724,-8.21701 19.83024,2.88911 15.93132,15.3683 -2.32166,7.43103 -9.44054,10.89924 -14.91991,7.2688 z M 414.45468,231.73129 c -2.3195,-2.02848 -3.54372,-4.07358 -4.61827,-7.71472 -3.87161,-13.1191 6.97244,-31.21279 16.13949,-26.92938 4.88965,2.28474 7.33034,7.62712 7.33034,16.04522 0,6.19972 -0.84231,9.58821 -3.41454,13.73602 -3.71559,5.99149 -11.38424,8.40721 -15.43702,4.86286 z m -135.88801,-8.42158 c -2.87242,-2.01305 -5.95131,-6.80378 -7.81628,-12.16203 -1.16068,-3.33474 -1.30425,-4.95921 -1.2756,-14.43383 0.0256,-8.42477 0.30231,-12.02869 1.31277,-17.08957 3.15548,-15.80426 7.70105,-22.74088 14.90203,-22.74088 3.86532,0 5.75123,1.24356 8.55896,5.64367 3.03543,4.75695 4.56894,12.22498 4.91208,23.92118 0.42962,14.64422 -1.38549,24.57001 -5.788,31.65129 -4.22115,6.78955 -9.76744,8.74128 -14.80596,5.21017 z m -233.147039,-6.0243 c -11.096996,-4.91018 -15.769569,-19.79069 -10.863785,-34.59735 2.940522,-8.87506 12.666963,-20.89885 20.843866,-25.76707 2.895937,-1.72414 4.416761,-2.07626 8.995606,-2.08279 4.87039,-0.007 5.895476,0.25977 8.825118,2.29664 6.260775,4.35285 10.0297,13.08201 9.906873,22.94525 -0.138843,11.14965 -7.588135,24.48744 -17.861919,31.98135 -8.279481,6.03922 -14.376318,7.64406 -19.845759,5.22397 z m 155.577129,-2.05297 c -3.63412,-1.22602 -7.32212,-5.17746 -8.85252,-9.48493 -1.09238,-3.0746 -1.41503,-8.6171 -0.73522,-12.62931 2.14235,-12.64374 13.27661,-17.47643 20.59286,-8.93807 5.39351,6.29441 6.27062,17.33631 1.96465,24.73243 -2.79579,4.80221 -8.79843,7.72711 -12.96977,6.31988 z m -45.24379,-6.20004 c -5.64837,-3.9606 -13.60978,-13.30007 -16.42412,-19.26708 -3.82878,-8.1178 -4.51133,-16.74495 -1.96868,-24.88317 5.78035,-18.50116 27.51339,-16.65675 36.38699,3.08809 2.95159,6.56759 3.93635,11.87172 3.63911,19.60072 -0.41707,10.84512 -3.69121,18.60933 -9.44805,22.40491 -4.17209,2.75071 -7.25749,2.51185 -12.18525,-0.94347 z m 424.52913,-0.0962 c -3.51548,-1.76521 -6.87464,-6.26402 -8.84442,-11.84503 -3.39417,-9.6167 -2.97915,-18.65021 1.41725,-30.84885 5.33323,-14.79819 12.32104,-24.44958 18.98314,-26.21912 l 2.15475,-0.57232 -0.15149,33.53298 -0.15149,33.53296 -2.32019,1.86021 c -2.73591,2.19349 -7.36735,2.42708 -11.0874,0.55917 z m -203.15512,-5.24002 c -7.93707,-4.04256 -14.20611,-12.9987 -18.77531,-26.82293 -5.29831,-16.03032 -0.10231,-36.42987 9.81529,-38.53558 8.92154,-1.89417 27.54228,14.65817 32.41144,28.8112 1.38065,4.013 1.73159,6.22293 1.89103,11.90805 0.18457,6.57931 0.0841,7.28597 -1.74865,12.29335 -2.18092,5.95877 -5.97944,10.66099 -10.29644,12.746 -3.5379,1.70868 -9.50979,1.52899 -13.29736,-0.40009 z m 155.3676,-2.17392 c -3.2968,-1.60708 -7.15137,-5.78867 -9.49487,-10.3004 -1.71828,-3.30805 -1.81608,-3.8957 -1.81608,-10.91032 0,-6.43939 0.21998,-8.08842 1.67367,-12.54467 1.69323,-5.19063 5.12591,-10.49377 8.26582,-12.76994 2.99007,-2.16754 6.22199,-2.45111 10.17051,-0.89238 3.03907,1.1997 4.23057,2.23748 6.91292,6.02109 5.35964,7.56013 7.04264,17.3381 4.82305,28.02123 -2.32994,11.2142 -12.02034,17.52597 -20.53502,13.37539 z M 0.00992048,171.30437 c 0,-35.11162 -0.47903459,-32.47455 5.22043712,-28.73868 4.1232881,2.70275 8.3228724,8.5224 10.6282934,14.72836 1.658352,4.46414 1.831059,5.62249 1.836617,12.31869 0.0051,6.13973 -0.228003,8.06457 -1.376701,11.36811 -1.776468,5.10895 -6.136623,11.31495 -11.8132707,16.81437 l -4.49537582,4.35502 z M 237.77625,189.82332 c -5.43718,-3.01184 -10.211,-8.92812 -12.8473,-15.9219 -1.092,-2.89691 -1.30736,-4.75117 -1.30869,-11.26928 -7.6e-4,-7.08253 0.15411,-8.19968 1.6871,-12.11694 5.22073,-13.34056 17.30407,-14.94826 26.09749,-3.47231 7.04067,9.18847 8.26458,27.47693 2.50127,37.37618 -3.66354,6.29259 -10.43214,8.5604 -16.12987,5.40425 z M 439.8527,182.7931 c -13.71385,-6.06809 -19.93354,-29.67399 -13.05722,-49.55675 2.09285,-6.0515 5.70999,-11.60027 9.49897,-14.57167 2.84265,-2.2293 3.56352,-2.42966 8.61277,-2.39402 4.93769,0.0347 5.92107,0.30913 9.46109,2.64019 5.23743,3.44859 11.23818,11.60016 13.65398,18.54791 2.00052,5.75335 3.29126,15.4482 2.77149,20.81701 -0.18766,1.93873 -0.97573,5.28267 -1.75116,7.43097 -4.5857,12.70408 -19.44139,21.39986 -29.18992,17.08636 z m -337.15684,-9.57725 c -4.236801,-2.39401 -7.265075,-8.15029 -7.936538,-15.08619 -1.347793,-13.92214 9.754198,-25.97078 18.655078,-20.24579 2.84413,1.82934 5.71979,6.31904 6.67671,10.42421 1.40119,6.01114 -0.27516,15.45885 -3.69014,20.79703 -2.76875,4.32802 -9.66167,6.39552 -13.70511,4.11074 z m 392.93847,-13.31524 c -7.00448,-3.82103 -10.89056,-12.23817 -10.87193,-23.54834 0.0154,-9.73164 4.30146,-30.12253 9.06132,-43.11538 4.36889,-11.92566 11.85244,-20.666333 20.03217,-23.397312 8.44105,-2.8182 17.68076,3.143237 21.35607,13.778956 2.93558,8.495159 1.89714,20.701836 -2.31071,27.161636 -0.7022,1.07803 -3.37712,4.45673 -5.94425,7.5082 -5.3248,6.32948 -7.67861,11.63027 -9.29824,20.94011 -1.9522,11.22158 -5.51418,17.76719 -11.14732,20.48471 -3.07403,1.48299 -8.33597,1.57362 -10.87711,0.18742 z m -178.29062,-3.50048 c -3.9377,-1.49894 -6.30361,-3.55222 -9.04725,-7.85191 -5.52223,-8.65414 -6.41419,-22.42467 -2.25813,-34.86287 1.92513,-5.76154 7.77838,-14.628518 12.07656,-18.29449 7.72312,-6.587194 17.0599,-8.85613 22.67358,-5.509941 7.62109,4.542792 11.16872,18.155051 8.74739,33.563921 -2.26462,14.41182 -11.24285,28.32209 -21.04753,32.60972 -4.39362,1.92133 -6.80834,1.99618 -11.14462,0.34557 z m -125.80346,-4.05797 c -4.70814,-1.44496 -8.55056,-4.81515 -11.27801,-9.89201 -3.00122,-5.58645 -3.88509,-9.96932 -4.48202,-22.22535 -0.58589,-12.02958 -1.3744,-15.79921 -5.73743,-27.429394 -3.74031,-9.970269 -4.92218,-16.865852 -4.57531,-26.694343 0.21706,-6.15023 0.57344,-8.349616 2.07445,-12.802489 2.18352,-6.477601 6.31136,-12.238869 10.99648,-15.347914 2.83142,-1.878927 4.08063,-2.199934 8.5372,-2.193972 4.52707,0.0071 5.65816,0.310467 8.51618,2.291634 6.85926,4.754734 9.16392,11.005535 9.73955,26.415849 0.47592,12.741663 1.15804,15.386065 6.67473,25.876246 5.04194,9.587455 7.34773,16.716283 7.70714,23.828243 0.69965,13.8445 -4.99953,29.33113 -13.08766,35.56373 -2.52184,1.94329 -3.89865,2.43086 -9.68913,3.43119 -0.95708,0.16549 -3.38536,-0.20433 -5.39617,-0.82142 z M 33.942766,150.78049 c -4.569251,-2.36989 -7.779594,-10.23606 -6.998837,-17.14897 0.517568,-4.58254 1.578939,-7.0824 4.841403,-11.40305 5.597127,-7.41246 12.734194,-7.46017 17.636834,-0.11803 2.068849,3.09835 2.792132,6.04297 2.792132,11.36735 0,5.51039 -0.72593,8.28482 -3.080833,11.77473 -3.853895,5.71132 -10.308447,8.06013 -15.190699,5.52786 z m 522.689644,-7.16243 c -6.12261,-1.94652 -9.73939,-7.60953 -10.10905,-15.8283 -0.81824,-18.194 14.96758,-30.549376 23.89251,-18.70032 3.83375,5.0898 5.03173,15.05279 2.64819,22.02384 -2.89655,8.47157 -10.62296,14.35147 -16.43165,12.50478 z M 399.618,141.0549 c -4.28522,-4.08866 -5.86998,-11.94079 -3.81357,-18.89549 0.95115,-3.2168 5.01748,-8.56404 7.06611,-9.292 2.42913,-0.86319 7.20066,0.13758 8.8721,1.86057 6.13115,6.32081 5.09167,21.74033 -1.78321,26.45228 -3.47781,2.38367 -7.76626,2.33166 -10.34143,-0.12541 z m -260.17445,-7.12442 c -5.30823,-1.79422 -10.805,-8.13423 -13.64156,-15.73427 -1.10113,-2.95034 -1.34851,-4.88878 -1.35892,-10.64832 -0.0116,-6.41287 0.14262,-7.3947 1.72742,-10.999658 1.21175,-2.756379 2.70889,-4.732942 4.93041,-6.509226 2.92677,-2.340156 3.62145,-2.548313 8.41072,-2.520178 6.05206,0.03527 9.27734,1.661713 12.58576,6.345846 3.62724,5.13553 4.81593,9.745796 4.81409,18.671466 -7.6e-4,6.45089 -0.2214,8.38415 -1.27095,11.1646 -3.07215,8.1388 -9.80405,12.39055 -16.19697,10.22974 z m 124.93858,-2.85013 c -6.18669,-2.52195 -12.83629,-10.12286 -14.95439,-17.09387 -1.08987,-3.58696 -1.25094,-5.33498 -1.04725,-11.36653 0.29637,-8.776922 2.37014,-15.408299 6.83522,-21.857312 12.56857,-18.152954 33.21608,-0.884957 31.7504,26.553612 -0.37563,7.03183 -2.52425,14.49433 -5.24738,18.22504 -3.9916,5.46848 -11.56997,7.88979 -17.3366,5.53906 z M 78.11054,126.01773 C 73.400021,124.40327 67.174356,119.58397 64.507309,115.48739 59.390943,107.62874 55.11454,93.678527 55.11454,84.846862 c 0,-13.656685 5.17871,-26.016109 13.259839,-31.645761 3.510481,-2.445546 4.294475,-2.669009 9.364484,-2.669009 5.116513,0 5.838099,0.210779 9.58098,2.798479 6.148671,4.250942 11.311766,12.096239 15.454467,23.482986 4.99787,13.73721 5.75214,23.066144 2.64252,32.682843 -4.53789,14.03376 -15.39609,20.60336 -27.30629,16.52133 z M 6.6804803,115.2789 C 6.0424261,115.0334 4.2805282,114.08543 2.7651509,113.17251 L 0.00992048,111.51266 V 83.726044 55.93945 L 2.7651509,53.646382 c 2.4320723,-2.024063 3.3335172,-2.29302 7.6856451,-2.29302 4.048207,0 5.442647,0.356916 7.793163,1.994737 4.044576,2.818269 10.804538,12.182861 12.995412,18.002594 5.936223,15.768708 1.424496,33.352627 -10.593307,41.286197 -3.224227,2.12847 -4.882309,2.69423 -8.410707,2.86984 -2.4171286,0.12017 -4.9168246,0.0191 -5.5548767,-0.22795 z M 590.98825,106.92083 c -4.337,-6.8401 -5.41924,-10.803027 -5.41924,-19.8433 0,-7.131061 0.14957,-8.184879 1.74015,-12.257349 0.95708,-2.45053 2.83909,-6.146127 4.18233,-8.212442 l 2.44216,-3.756948 0.0233,24.021446 c 0.0136,13.211783 -0.0832,24.021413 -0.21329,24.021413 -0.13008,0 -1.36986,-1.7878 -2.75524,-3.97282 z m -219.8934,-1.30511 c -4.81777,-2.43422 -7.49192,-6.75748 -12.22882,-19.770046 -1.4798,-4.065175 -4.95035,-11.456371 -7.71231,-16.424909 -6.81502,-12.259663 -8.04699,-16.098727 -8.03809,-25.047986 0.006,-5.547653 0.26218,-7.659081 1.25021,-10.285815 1.6002,-4.254135 6.13324,-10.232976 9.50587,-12.537655 8.29503,-5.668468 19.12365,-1.182311 28.12741,11.652818 5.32761,7.594654 7.78969,13.629194 10.75643,26.363677 1.65929,7.122384 1.91092,9.302527 1.89585,16.424934 -0.0231,10.90253 -1.42396,16.224194 -5.9625,22.64996 -5.09383,7.211912 -11.83544,9.884592 -17.59405,6.975022 z m 88.57958,-2.38928 c -4.70097,-1.69461 -8.18164,-4.497878 -10.90012,-8.778765 -7.20544,-11.346667 -4.06055,-29.576086 6.24585,-36.203737 6.63632,-4.26756 16.92872,1.335601 21.56861,11.741945 5.16164,11.576636 2.81616,26.16904 -5.13721,31.960827 -2.804,2.04195 -8.07415,2.61462 -11.77713,1.27973 z m -43.65147,-5.577974 c -4.42495,-3.101051 -7.08858,-9.845849 -7.20041,-18.232709 -0.0884,-6.62765 0.81558,-10.252408 3.46599,-13.898173 3.61186,-4.9683 7.16019,-5.948441 11.47926,-3.170943 2.89645,1.862667 6.22566,7.22422 7.12512,11.474728 2.19689,10.381573 -0.7453,20.60389 -6.99385,24.299418 -2.91475,1.723839 -4.91336,1.604003 -7.87611,-0.472321 z M 225.64883,91.412472 c -2.14317,-1.140201 -4.28133,-4.029289 -5.27528,-7.128032 -2.06909,-6.450469 -0.83232,-16.435902 2.43731,-19.678326 6.02055,-5.970472 15.59905,2.263166 15.59905,13.408854 0,4.018726 -2.21385,9.831687 -4.62438,12.14226 -1.87985,1.801904 -5.93362,2.427278 -8.1367,1.255244 z m 76.75148,-11.570365 c -5.37573,-2.696598 -11.52938,-11.398503 -14.62906,-20.686913 -1.25704,-3.766796 -1.50634,-5.676052 -1.5014,-11.497453 0.004,-6.088402 0.22479,-7.594798 1.71813,-11.786222 4.19288,-11.768365 13.45981,-16.917878 20.94336,-11.63794 9.59249,6.767828 16.03218,28.569359 12.62301,42.735155 -2.44383,10.15453 -11.90186,16.511293 -19.15404,12.873373 z M 553.03585,74.954635 C 543.79292,70.270862 534.223,55.105351 533.26216,43.619152 c -0.72752,-8.69704 3.3197,-18.68705 9.27722,-22.899555 3.02353,-2.137915 9.40824,-4.23394 12.96108,-4.254921 4.21274,-0.0248 11.14201,2.29433 15.10232,5.054686 7.83911,5.463889 13.04691,16.00347 13.11698,26.546106 0.0641,9.641225 -5.08347,20.213615 -12.42992,25.529509 -2.69495,1.950027 -3.95588,2.30003 -9.2128,2.55711 -4.81908,0.235575 -6.7065,-0.01669 -9.04119,-1.197452 z M 125.59044,69.583163 c -3.65957,-2.470343 -6.98988,-7.650923 -7.86158,-12.229237 -0.8934,-4.692452 -0.28748,-11.566409 1.47,-16.676769 1.67428,-4.868349 6.08637,-11.439441 9.18648,-13.681747 7.57985,-5.482464 17.12348,0.104675 19.82109,11.603416 2.06049,8.783164 0.26727,20.542206 -4.06884,26.681371 -2.92158,4.136443 -5.79222,5.700491 -11.00652,5.996962 -3.93362,0.223415 -5.0821,-0.03456 -7.54063,-1.693996 z M 485.22059,51.570054 c -7.40794,-3.76968 -11.88873,-14.1203 -11.12507,-25.69887 0.39933,-6.05433 0.80756,-7.513753 4.98582,-17.8238152 l 3.23901,-7.99241309 21.57035,-0.01669107 21.57035,-0.01669107 -0.30973,3.07966913 c -0.54421,5.4117199 -3.92709,14.2939283 -9.37956,24.6272893 -7.71452,14.620351 -12.08401,20.151526 -18.40328,23.296123 -3.44893,1.716265 -9.32455,1.97814 -12.14789,0.541465 z M 242.3424,49.369238 c -5.3048,-1.533385 -9.70766,-7.560652 -17.09562,-23.403012 -4.9034,-10.514595 -5.39843,-12.32614 -5.39843,-19.7550084 V 0.02550898 h 24.07203 24.07201 V 6.0983423 c 0,10.9995017 -4.25508,25.5492037 -10.18522,34.8270977 -4.62165,7.230705 -9.82773,10.073273 -15.46477,8.443798 z m 183.1332,-4.55459 c -6.97984,-1.809017 -15.18368,-5.2116 -18.80383,-7.798945 -4.86046,-3.473781 -7.28264,-6.755096 -9.3274,-12.635652 -2.04358,-5.877245 -2.6351,-11.316719 -2.05899,-18.9334514 l 0.41005,-5.42109062 h 29.51002 29.51004 l 0.39246,2.96197622 c 0.99487,7.5081968 -1.33928,19.4449208 -5.49765,28.1146118 -3.83493,7.995466 -8.43674,12.342854 -14.83877,14.018442 -4.02466,1.053388 -4.05545,1.052363 -9.29593,-0.305746 z M 35.593982,41.046424 C 28.623418,39.31261 21.466968,33.555203 17.526458,26.511075 15.137984,22.241395 12.313436,13.690683 11.291533,7.6361615 9.8594433,-0.84855186 7.1834709,0.02550898 34.591402,0.02550898 H 58.732008 L 58.46321,10.496397 c -0.311435,12.131789 -1.566883,18.027176 -4.977065,23.371397 -4.004584,6.275789 -10.708443,8.965471 -17.892163,7.17863 z m 53.433065,-5.55967 C 84.880578,33.295452 83.787843,32.415048 78.896535,27.324574 70.054065,18.12207 67.312204,12.686365 67.301229,4.3370359 l -0.0057,-4.31152692 h 26.392215 c 14.515716,0 26.392206,0.28867448 26.392206,0.64151279 0,0.35286213 -1.00835,4.94705523 -2.24078,10.20932323 -3.04662,13.008496 -5.99786,18.351263 -12.83566,23.236823 -4.27965,3.057805 -11.598839,3.687061 -15.976481,1.373586 z M 159.84376,21.705364 C 153.79387,18.979512 147.01588,9.712036 145.33914,1.8732956 l -0.39525,-1.84778662 h 22.6972 22.69718 l -1.60038,4.16312362 c -2.07392,5.3949342 -7.9107,13.0892784 -12.16457,16.0359224 -2.80265,1.941376 -4.21732,2.36026 -8.60685,2.548529 -3.57192,0.153314 -6.17128,-0.188364 -8.12271,-1.06772 z m 157.02822,-9.332401 c -2.49831,-1.605679 -7.91115,-8.2047401 -8.92085,-10.8758721 -0.52822,-1.39742824 0.21935,-1.47158192 14.83543,-1.47158192 10.09871,0 15.39172,0.28867448 15.39172,0.8395826 0,1.89580792 -4.99379,8.31592342 -8.27293,10.63593342 -4.29098,3.035844 -9.1597,3.361573 -13.03337,0.871938 z m 45.08826,-10.0947303 -2.6102,-1.81743391 3.31256,-0.25763051 c 1.8219,-0.14187061 4.95416,-0.14711585 6.96057,-0.0119174 l 3.64805,0.24520714 -2.44211,1.84778758 c -3.06259,2.3173397 -5.53479,2.3157425 -8.86887,-0.00719 z"
       id="path1504" /></g></svg>
